<svg xmlns="http://www.w3.org/2000/svg" xmlns:xlink="http://www.w3.org/1999/xlink" version="1.1" x="0px" y="0px" viewBox="0 0 400 400" xml:space="preserve" class="injected-svg svg">
<g>
	<path d="M356.4,176.1v42.8c0,5.2-1.7,10.3-4.8,14.3l-27.5,38.1l17.5,39c2.2,4.9,1.7,10.5-1.2,15c-2.9,4.5-7.9,7.2-13.3,7.2h-3.4   c-6,0-11.6-3.5-14.2-8.9L295.1,294h-30.9l-3.9,4.5c-5,5.8-12.5,8.7-20,7.8l-20.3-2.4l-18,20.6c-4.4,5.1-10.6,7.9-17.2,7.9   c-0.5,0-1,0-1.5,0c-7.2-0.5-13.6-4.2-17.6-10.2L146,293l-98.8-32c-6.1-2-11.1-6.5-13.9-12.3L2.6,183c-2.4-5.1-2.9-10.9-1.4-16.3   l22.2-81.9c3.2-11.7,14.4-19,26-16.9l188.7,32.4c8.9,1.5,16.1,8.2,18.5,17L260,130c4.9-2.5,10.7-3.3,16.2-1.8   c6.3,1.6,11.6,5.9,14.6,11.6l51.1-55c5.1-5.5,13.5-6.7,19.9-2.7l30.4,18.9c3.8,2.3,6.4,6.2,7.2,10.6c0.8,4.4-0.3,8.9-3,12.5   L356.4,176.1z M360.7,118.6l-4.6-2.9l-53.4,57.5c-0.7,0.8-1.6,1.5-2.5,2.2c-6.1,4.3-13.9,5.4-20.9,2.8c-5.9-2.1-10.7-6.7-13.3-12.4   c-5,2.7-10.9,3.4-16.5,2c-8.1-2.1-14.4-8.5-16.6-16.6l-5.5-20.7L52,100.3l-19.5,71.9l27.9,59.9l98.1,31.8c4.9,1.6,9.2,4.8,12.1,9.1   l15.1,22.4l13.7-15.7c5-5.7,12.5-8.6,19.9-7.7l20.3,2.4l3.5-4c4.4-5.1,10.7-8,17.4-8h31.4l1.6-2.2l0,0l31.7-43.9v-42.9   c0-5.2,1.7-10.3,4.9-14.4L360.7,118.6z M297.7,203c-8.6-7.7-21.4-7.7-30-0.7l-26-13.5c0.9-7.3-1.7-14.9-7.6-20.1   c-9.6-8.6-24.2-7.7-32.8,1.9c-5.2,5.8-6.9,13.6-5.3,20.7l-28,15.5c-6.5-4.9-14.8-5.9-22.1-3.2L95,155.3c3.6-8.9,1.6-19.4-6-26.1   c-9.6-8.6-24.2-7.7-32.8,1.9s-7.7,24.2,1.9,32.8c5.8,5.2,13.4,6.8,20.5,5.3l53,50.4c-2.1,8.2,0.3,17.1,7,23   c9.6,8.6,24.2,7.7,32.8-1.9c3.8-4.2,5.6-9.4,5.8-14.6l33.2-18.4c6.2,2.4,13.2,1.9,19.1-1.2l29.6,15.4c0.4,5.9,3,11.6,7.7,15.8   c9.6,8.6,24.2,7.7,32.8-1.9C308.1,226.2,307.3,211.6,297.7,203z"></path>
</g>
</svg>